<?xml version="1.0" encoding="utf-8"?>
<!-- Generator: Adobe Illustrator 23.0.1, SVG Export Plug-In . SVG Version: 6.00 Build 0)  -->
<svg version="1.1" id="Layer_1" xmlns="http://www.w3.org/2000/svg" xmlns:xlink="http://www.w3.org/1999/xlink" x="0px" y="0px"
	 viewBox="0 0 162 24.7" style="enable-background:new 0 0 162 24.7;" xml:space="preserve">
<style type="text/css">
	.st0{fill-rule:evenodd;clip-rule:evenodd;fill:#383838;}
	.st1{fill-rule:evenodd;clip-rule:evenodd;fill:#383838;fill-opacity:0.7;}
</style>
<path class="st0" d="M7.4,10.5V18h7.7v5.9l-5.4-1.8l0,0l0,0L7,21.2c-5.3-1.8-8.2-7.5-6.5-12.8l0.2-0.5c1.9-5.2,7.7-8,13.1-6.2
	l1.4,0.5v8.3L7.4,10.5L7.4,10.5z M29.6,10.5C28.4,8,26.3,6,23.5,5l-0.8-0.3v5.7C22.8,10.5,29.6,10.5,29.6,10.5z M22.8,24.7
	c3.3-0.8,6-3.2,7.2-6.6l0,0l0,0h-7.2C22.8,18,22.8,24.7,22.8,24.7z M119.2,19.8c0.4,0,0.8-0.1,1.2-0.2c0.4-0.1,0.7-0.3,1-0.6
	c0.3-0.3,0.5-0.7,0.7-1.2c0.2-0.5,0.2-1.2,0.2-2V15c0-0.8-0.1-1.5-0.2-2c-0.2-0.5-0.4-1-0.7-1.3c-0.3-0.3-0.6-0.6-1-0.7
	c-0.4-0.1-0.8-0.2-1.2-0.2l-0.1,0l-0.2,0c-0.4,0-0.8,0.1-1.2,0.2c-0.4,0.1-0.7,0.4-1,0.7c-0.3,0.3-0.5,0.8-0.7,1.3
	c-0.2,0.5-0.2,1.2-0.2,2v0.9c0,0.8,0.1,1.5,0.2,2c0.2,0.5,0.4,0.9,0.7,1.2c0.3,0.3,0.6,0.5,1,0.6c0.4,0.1,0.8,0.2,1.3,0.2
	C119.1,19.8,119.2,19.8,119.2,19.8z M121,9.2c0.5,0.1,0.9,0.3,1.3,0.5l0-6.7h3.3v12.5c0,1-0.2,1.8-0.4,2.6c-0.3,0.8-0.7,1.4-1.2,2
	c-0.5,0.6-1.2,1-2,1.3c-0.8,0.3-1.8,0.4-3,0.4c-1.1,0-2.1-0.1-2.8-0.4c-0.8-0.3-1.4-0.7-2-1.3c-0.5-0.5-0.9-1.2-1.2-2
	c-0.3-0.8-0.4-1.6-0.4-2.6c0-1,0.2-1.9,0.4-2.6c0.3-0.8,0.6-1.5,1.2-2c0.5-0.6,1.2-1,1.9-1.3c0.8-0.3,1.7-0.5,2.8-0.5
	C119.7,8.9,120.4,9,121,9.2L121,9.2z M96.6,10.9c-0.5-0.6-1.2-1-2-1.3c-0.8-0.3-1.8-0.5-2.9-0.5c-1.1,0-2,0.2-2.8,0.5
	c-0.7,0.3-1.4,0.7-1.9,1.3c-0.5-0.5-1.1-0.9-1.8-1.2c-0.8-0.3-1.8-0.5-2.9-0.5c-2,0-3.6,0.6-4.7,1.8c-1.1,1.2-1.6,2.8-1.6,4.8v5.9
	h3.3V15c0-0.8,0.1-1.5,0.2-2c0.2-0.5,0.4-0.9,0.7-1.2c0.3-0.3,0.6-0.5,1-0.6c0.4-0.1,0.8-0.2,1.2-0.2c0.1,0,0.1,0,0.2,0
	c0.5,0,0.9,0,1.3,0.2c0.3,0.1,0.6,0.3,0.9,0.6c0.2,0.3,0.4,0.7,0.6,1.2c0.1,0.5,0.2,1.2,0.2,2v6.7h3.3v-5.6c0-0.4,0-0.7,0-0.8
	c0-0.1,0-0.2,0-0.3c0-0.8,0.1-1.5,0.2-2c0.2-0.5,0.4-0.9,0.7-1.2c0.3-0.3,0.6-0.5,1-0.6c0.4-0.1,0.8-0.2,1.2-0.2l0.1,0h0
	c0.5,0,0.9,0,1.3,0.2c0.4,0.1,0.7,0.3,0.9,0.6c0.2,0.3,0.4,0.7,0.5,1.2c0.1,0.5,0.2,1.2,0.2,2v6.7h3.3v-6c0-1-0.1-1.9-0.3-2.7
	C97.5,12.1,97.1,11.4,96.6,10.9L96.6,10.9z M104.2,11.3c0.3-0.2,0.7-0.3,1.2-0.3h0c0.8,0,1.5,0.3,2.1,0.8c0.5,0.5,0.8,1.4,1,2.5h-6
	c0.1-0.4,0.1-0.8,0.3-1.1c0.1-0.4,0.3-0.8,0.6-1.1C103.6,11.8,103.9,11.6,104.2,11.3z M110,11.1c-0.5-0.6-1.2-1-2-1.3
	c-0.8-0.3-1.6-0.5-2.6-0.5c-0.9,0-1.7,0.2-2.4,0.6c-0.7,0.3-1.4,0.8-1.9,1.4c-0.6,0.6-1,1.2-1.3,2c-0.3,0.7-0.5,1.5-0.5,2.4
	c0,0.9,0.2,1.7,0.5,2.5c0.3,0.8,0.8,1.4,1.3,2c0.6,0.5,1.2,1,2,1.3c0.8,0.3,1.6,0.5,2.5,0.5h0c0.1,0,0.2,0,0.3,0
	c0.5,0,1-0.1,1.5-0.3c0.5-0.2,1.1-0.4,1.6-0.6l0.2-0.1l-0.3-1.2l-0.2,0.1c-1,0.3-1.8,0.4-2.4,0.4c-0.7,0-1.3-0.1-1.7-0.4
	c-0.5-0.2-0.8-0.6-1.1-0.9c-0.3-0.4-0.5-0.8-0.6-1.2c-0.1-0.4-0.2-0.7-0.2-1.1h9.1v-0.2c0-0.1,0-0.2,0-0.4c0-0.2,0-0.3,0-0.4
	c0-0.8-0.1-1.6-0.4-2.4S110.6,11.7,110,11.1L110,11.1z M135.5,16.5c-0.2-0.4-0.6-0.8-1-1.1c-0.4-0.3-0.8-0.5-1.3-0.8
	c-0.5-0.2-0.9-0.4-1.4-0.6c-0.4-0.1-0.7-0.3-1-0.4c-0.3-0.1-0.6-0.3-0.9-0.5c-0.2-0.2-0.4-0.3-0.6-0.5c-0.1-0.2-0.2-0.4-0.2-0.6
	c0-0.2,0.1-0.4,0.2-0.6c0.1-0.2,0.3-0.3,0.5-0.5c0.2-0.1,0.5-0.2,0.7-0.3c0.3-0.1,0.6-0.1,0.9-0.1c0.5,0,1,0.1,1.4,0.2
	c0.4,0.1,0.7,0.2,1,0.3c0.3,0.1,0.5,0.3,0.7,0.4c0.2,0.1,0.4,0.3,0.6,0.4l0.3,0.3v-0.4c0-0.2,0-0.5,0-0.7c0-0.2,0-0.5-0.1-0.9l0-0.1
	l-0.1-0.1c-0.3-0.2-0.6-0.4-0.9-0.5c-0.3-0.1-0.6-0.3-0.9-0.3c-0.3-0.1-0.7-0.1-1-0.2c-0.4,0-0.8-0.1-1.2-0.1
	c-0.6,0-1.2,0.1-1.8,0.2c-0.6,0.2-1.1,0.4-1.5,0.7c-0.4,0.3-0.8,0.7-1.1,1.1c-0.3,0.4-0.4,0.9-0.4,1.5c0,0.6,0.1,1.2,0.4,1.6
	c0.2,0.4,0.6,0.8,1,1.1c0.4,0.3,0.8,0.5,1.3,0.7c0.5,0.2,0.9,0.4,1.4,0.5c0.4,0.1,0.7,0.3,1,0.4c0.3,0.1,0.6,0.3,0.8,0.4
	c0.2,0.2,0.4,0.3,0.6,0.5c0.1,0.2,0.2,0.4,0.2,0.6c0,0.3-0.1,0.5-0.2,0.7c-0.1,0.2-0.3,0.4-0.5,0.6c-0.2,0.2-0.5,0.3-0.8,0.4
	c-0.3,0.1-0.7,0.1-1,0.1c-0.8,0-1.4,0-2-0.1c-0.6-0.1-1.1-0.4-1.7-0.8l-0.4-0.3l0.3,2.3l0.1,0c0.7,0.2,1.4,0.3,2,0.4
	c0.7,0.1,1.3,0.1,1.9,0.1h0c0.6,0,1.2-0.1,1.7-0.2c0.6-0.1,1.1-0.4,1.6-0.7c0.5-0.3,0.9-0.7,1.2-1.2c0.3-0.5,0.5-1.1,0.5-1.8
	C135.9,17.4,135.7,16.9,135.5,16.5L135.5,16.5z M50,9.6c0.8,0.3,1.5,0.8,2,1.3c0.5,0.6,0.9,1.3,1.1,2.1c0.2,0.8,0.3,1.7,0.3,2.7v5.9
	h-3.3V15c0-0.8-0.1-1.5-0.2-2c-0.1-0.5-0.3-0.9-0.5-1.2c-0.2-0.3-0.5-0.5-0.9-0.6c-0.4-0.1-0.8-0.2-1.3-0.2c-0.1,0-0.1,0-0.2,0
	c-0.4,0-0.8,0.1-1.2,0.2c-0.4,0.1-0.7,0.3-1,0.6c-0.3,0.3-0.5,0.7-0.7,1.2c-0.2,0.5-0.2,1.2-0.2,2v6.6h-3.3v-5.9
	c0-2,0.6-3.7,1.6-4.9c1.1-1.2,2.7-1.8,4.7-1.8C48.3,9.2,49.2,9.3,50,9.6z M59.6,11.3c0.3-0.2,0.7-0.3,1.2-0.3h0
	c0.8,0,1.5,0.3,2.1,0.8c0.5,0.5,0.8,1.4,1,2.5h-6c0.1-0.4,0.1-0.8,0.3-1.1c0.1-0.4,0.3-0.8,0.6-1.1C58.9,11.8,59.2,11.6,59.6,11.3z
	 M65.4,11.1c-0.5-0.6-1.2-1-2-1.3c-0.8-0.3-1.6-0.5-2.6-0.5c-0.9,0-1.7,0.2-2.4,0.6c-0.7,0.3-1.4,0.8-1.9,1.4c-0.5,0.6-1,1.2-1.3,2
	c-0.3,0.7-0.5,1.5-0.5,2.4c0,0.9,0.2,1.7,0.5,2.5c0.3,0.8,0.8,1.4,1.3,2c0.6,0.5,1.2,1,2,1.3c0.8,0.3,1.6,0.5,2.5,0.5h0
	c0.1,0,0.2,0,0.3,0c0.5,0,1-0.1,1.5-0.3c0.5-0.2,1.1-0.4,1.6-0.6l0.2-0.1l-0.3-1.2L64,19.6c-1,0.3-1.8,0.4-2.4,0.4
	c-0.7,0-1.3-0.1-1.7-0.4c-0.5-0.2-0.8-0.6-1.1-0.9c-0.3-0.4-0.5-0.8-0.6-1.2c-0.1-0.4-0.2-0.7-0.2-1.1H67v-0.2c0-0.1,0-0.2,0-0.4
	c0-0.2,0-0.3,0-0.4c0-0.8-0.1-1.6-0.4-2.4S65.9,11.7,65.4,11.1z M72.3,10.9v8.6h0l0,0.5c0,0.3,0.1,0.8,0.6,0.8
	c0.2,0,0.7,0.1,0.9,0.1c0,0,0.1,0,0.1,0l0.1,0v0.7c-0.5,0.1-1.4,0.1-2.1,0.1c-0.5,0-0.9,0-1.2-0.1c-0.3-0.1-0.6-0.2-0.9-0.3
	c-0.2-0.1-0.4-0.3-0.5-0.5c-0.1-0.2-0.2-0.4-0.2-0.6v-1.8h0v-7.5h-2.9V9h2.9V4.9l3.2-2V9h2.9v1.9C75.2,10.9,72.3,10.9,72.3,10.9z"/>
<path class="st1" d="M136.7,6.8h-0.9V6.7h2v0.2h-0.9v2.4h-0.2L136.7,6.8 M138.5,6.7h0.2l1,1.5l1-1.5h0.2v2.5h-0.2V7l-1,1.5h0l-1-1.5
	v2.2h-0.2L138.5,6.7 M136.9,21.7h1.1v-1.3h-1.1V21.7z M142,21.8c-0.5,0-0.9-0.1-1.3-0.3c-0.4-0.2-0.7-0.4-1-0.7
	c-0.3-0.3-0.5-0.6-0.7-1s-0.2-0.8-0.2-1.2v0c0-0.4,0.1-0.8,0.2-1.2c0.2-0.4,0.4-0.7,0.7-1c0.3-0.3,0.6-0.5,1-0.7
	c0.4-0.2,0.8-0.3,1.3-0.3c0.3,0,0.6,0,0.8,0.1c0.2,0.1,0.5,0.1,0.7,0.2c0.2,0.1,0.4,0.2,0.6,0.4c0.2,0.1,0.3,0.3,0.5,0.4l-0.6,0.6
	c-0.2-0.3-0.5-0.5-0.8-0.7c-0.3-0.2-0.6-0.3-1.1-0.3c-0.3,0-0.6,0.1-0.9,0.2c-0.3,0.1-0.5,0.3-0.7,0.5c-0.2,0.2-0.4,0.5-0.5,0.8
	c-0.1,0.3-0.2,0.6-0.2,0.9v0c0,0.3,0.1,0.6,0.2,0.9s0.3,0.5,0.5,0.8c0.2,0.2,0.4,0.4,0.7,0.5c0.3,0.1,0.6,0.2,0.9,0.2
	c0.4,0,0.8-0.1,1.1-0.3c0.3-0.2,0.6-0.4,0.8-0.7l0.6,0.5c-0.3,0.4-0.7,0.6-1.1,0.9C143.1,21.7,142.6,21.8,142,21.8 M148.2,21
	c0.3,0,0.6-0.1,0.9-0.2c0.3-0.1,0.5-0.3,0.7-0.5c0.2-0.2,0.4-0.5,0.5-0.8c0.1-0.3,0.2-0.6,0.2-0.9v0c0-0.3-0.1-0.6-0.2-0.9
	c-0.1-0.3-0.3-0.5-0.5-0.8c-0.2-0.2-0.5-0.4-0.7-0.5c-0.3-0.1-0.6-0.2-0.9-0.2c-0.3,0-0.6,0.1-0.9,0.2c-0.3,0.1-0.5,0.3-0.7,0.5
	c-0.2,0.2-0.3,0.5-0.5,0.8c-0.1,0.3-0.2,0.6-0.2,0.9v0c0,0.3,0.1,0.6,0.2,0.9s0.3,0.5,0.5,0.8c0.2,0.2,0.4,0.4,0.7,0.5
	C147.5,20.9,147.8,21,148.2,21 M148.1,21.8c-0.5,0-0.9-0.1-1.3-0.3c-0.4-0.2-0.7-0.4-1-0.7c-0.3-0.3-0.5-0.6-0.7-1
	c-0.2-0.4-0.2-0.8-0.2-1.2v0c0-0.4,0.1-0.8,0.2-1.2c0.2-0.4,0.4-0.7,0.7-1c0.3-0.3,0.6-0.5,1-0.7c0.4-0.2,0.8-0.3,1.3-0.3
	c0.5,0,0.9,0.1,1.3,0.3c0.4,0.2,0.7,0.4,1,0.7c0.3,0.3,0.5,0.6,0.7,1c0.2,0.4,0.2,0.8,0.2,1.2v0c0,0.4-0.1,0.8-0.2,1.2
	s-0.4,0.7-0.7,1c-0.3,0.3-0.6,0.5-1,0.7C149,21.7,148.6,21.8,148.1,21.8 M152.3,15.5h0.9v1c0.1-0.1,0.2-0.3,0.3-0.4
	c0.1-0.1,0.3-0.3,0.4-0.4c0.2-0.1,0.3-0.2,0.5-0.3s0.4-0.1,0.7-0.1c0.5,0,0.9,0.1,1.2,0.4c0.3,0.2,0.6,0.5,0.7,0.9
	c0.1-0.2,0.2-0.3,0.4-0.5c0.1-0.2,0.3-0.3,0.5-0.4c0.2-0.1,0.4-0.2,0.6-0.3c0.2-0.1,0.5-0.1,0.7-0.1c0.7,0,1.3,0.2,1.7,0.7
	c0.4,0.4,0.6,1,0.6,1.8v3.8h-0.9v-3.6c0-0.6-0.1-1-0.4-1.4c-0.3-0.3-0.7-0.5-1.2-0.5c-0.2,0-0.5,0-0.7,0.1c-0.2,0.1-0.4,0.2-0.5,0.4
	c-0.2,0.2-0.3,0.4-0.4,0.6c-0.1,0.2-0.1,0.5-0.1,0.8v3.5h-0.9v-3.6c0-0.6-0.1-1-0.4-1.3c-0.3-0.3-0.7-0.5-1.2-0.5
	c-0.2,0-0.5,0-0.7,0.1c-0.2,0.1-0.4,0.2-0.5,0.4c-0.2,0.2-0.3,0.4-0.4,0.6c-0.1,0.2-0.1,0.5-0.1,0.8v3.5h-0.9L152.3,15.5"/>
</svg>
