<?xml version="1.0" encoding="utf-8"?>
<!-- Generator: Adobe Illustrator 23.0.1, SVG Export Plug-In . SVG Version: 6.00 Build 0)  -->
<svg version="1.1" id="Layer_1" xmlns="http://www.w3.org/2000/svg" xmlns:xlink="http://www.w3.org/1999/xlink" x="0px" y="0px"
	 viewBox="0 0 100 23" style="enable-background:new 0 0 100 23;" xml:space="preserve">
<style type="text/css">
	.st0{fill-rule:evenodd;clip-rule:evenodd;fill:#5E5E5E;}
</style>
<title>Practo</title>
<desc>Practo Logo</desc>
<g>
	<path class="st0" d="M7.7,11.1C7.7,9,6,7.3,3.9,7.3C1.7,7.3,0,9,0,11.1C0,13.3,1.7,15,3.9,15C6,15,7.7,13.3,7.7,11.1 M100,11.1
		c0-2.1-1.7-3.8-3.8-3.8c-2.1,0-3.8,1.7-3.8,3.8c0,2.1,1.7,3.8,3.8,3.8C98.2,15,100,13.3,100,11.1"/>
	<path class="st0" d="M59.1,14.6c-1.9,0-3.4-1.4-3.4-3.5s1.5-3.5,3.4-3.5c1.2,0,2.2,0.6,2.9,1.6L65.1,7c-1.3-1.9-3.5-3.2-6-3.2
		c-4,0-7.3,3.3-7.3,7.3c0,4,3.3,7.3,7.3,7.3c2.4,0,4.5-1.1,6.2-3.3l-3.2-2.2C61.4,13.9,60.4,14.6,59.1,14.6 M42.7,14.6
		c-1.9,0-3.4-1.4-3.4-3.5s1.5-3.5,3.4-3.5c1.9,0,3.4,1.4,3.4,3.5C46.1,13.2,44.6,14.6,42.7,14.6z M46.2,5.5c-1-0.9-2.3-1.6-4.1-1.6
		c-3.5,0-6.7,2.9-6.7,7.3c0,4.4,3.2,7.3,6.7,7.3c1.7,0,3-0.7,3.9-1.6V18h3.9V4.3h-3.8C46.2,4.3,46.2,5.5,46.2,5.5z M29.8,5.9V4.3H26
		V18h3.9v-6.5c0-2.7,1.5-3.5,3.2-3.5c0.4,0,0.9,0,1.3,0.1V4.3c-0.3-0.1-0.7-0.1-1.1-0.1C32.2,4.1,30.6,4.5,29.8,5.9 M70.5,0.2h-3.9
		v13.4c0,2.7,1.7,4.5,5,4.5c1.3,0,2.6-0.2,3.4-0.4v-3.5c-0.8,0.2-1.6,0.4-2.7,0.4c-1.1,0-1.8-0.3-1.8-1.4V7.7h4.5V4.2h-4.5V0.2
		 M83.3,14.6c-1.9,0-3.4-1.4-3.4-3.5s1.5-3.5,3.4-3.5c1.9,0,3.4,1.4,3.4,3.5C86.7,13.2,85.2,14.6,83.3,14.6z M83.3,3.8
		c-4,0-7.3,3.3-7.3,7.3c0,4,3.3,7.3,7.3,7.3c4,0,7.3-3.3,7.3-7.3C90.6,7.1,87.4,3.8,83.3,3.8z M16.8,14.6c-1.9,0-3.4-1.4-3.4-3.5
		c0-2.1,1.5-3.5,3.4-3.5c1.9,0,3.4,1.4,3.4,3.5S18.7,14.6,16.8,14.6z M17.5,3.8c-1.8,0-3.1,0.7-4.1,1.6V4.3H9.6v18.7h3.9l0-6.1
		c1,1,2.3,1.6,3.9,1.6c3.5,0,6.7-2.9,6.7-7.3C24.1,6.8,20.9,3.8,17.5,3.8z"/>
</g>
</svg>
