<?xml version="1.0" encoding="utf-8"?>
<!-- Generator: Adobe Illustrator 23.0.1, SVG Export Plug-In . SVG Version: 6.00 Build 0)  -->
<svg version="1.1" id="Layer_1" xmlns="http://www.w3.org/2000/svg" xmlns:xlink="http://www.w3.org/1999/xlink" x="0px" y="0px"
	 viewBox="0 0 1280 277" style="enable-background:new 0 0 1280 277;" xml:space="preserve">
<style type="text/css">
	.st0{fill:#545454;}
</style>
<g>
	<path class="st0" d="M221.9,142.9c5.4,4.8,10.8,8.9,15.5,13.8c6.8,7.1,6.9,15.9,1,22.1c-6.3,6.7-15.3,6.9-22.9-0.1
		c-9-8.2-17.4-17.1-26.2-25.5c-7.1-6.8-6.6-13.7-1-21c2.8-3.7,6.2-7,8.8-10.9c14.3-21.8,11-48-8-65.4c-19.3-17.6-49-19.2-68.9-1.8
		c-19.7,17.2-37.8,36.2-56.7,54.3c-9,8.7-17.9,17.6-27.2,26c-8.4,7.6-17.1,7.5-23.8,0.5c-6.4-6.6-6.1-14.8,2-22.7
		C42.2,85,69.7,57.2,98.6,30.9C128,4,176.5,4.5,207.7,30.2c31.4,25.9,39,68.9,18.5,104.8C225.1,136.9,224.1,138.8,221.9,142.9z"/>
	<path class="st0" d="M770.1,175c-0.8-3.2-2.2-6.3-2.2-9.5c-0.3-16.1-0.2-32.3-0.4-48.5c-0.1-13.1-5.7-19.8-16.1-19.7
		c-10.4,0.1-17.6,7.9-17.8,20.1c-0.3,18.6-0.1,37.3-0.1,56.9c-8.4,0-16.4,0-25.1,0c0-31.8,0-63.6,0-96.3c7.6,0,15.2,0,23.7,0
		c0.5,3.9,0.9,8,1.5,12.2c22.5-21.4,37.9-21,57,1.5c10.8-15.2,25.3-20.6,43-14.8c10.7,3.5,17.5,10.9,18.3,22.7
		c-0.1,24.4-0.2,48.8-0.2,73.2c0,0.2,0.5,0.5,0.7,0.7c-8,0.7-15.9,1.4-25.3,2.2c0-21.3,0.7-41-0.4-60.6c-0.3-5.8-4.7-13.9-9.4-16
		c-4.9-2.2-12.9,0.5-18.6,3.1c-3.1,1.4-4.5,6.9-6.6,10.5c-0.9,3.6-2.4,7.2-2.5,10.9c-0.3,15.3-0.1,30.6-0.1,44.5
		C781.8,170.9,776,172.9,770.1,175z"/>
	<path class="st0" d="M963.8,173c-1,0.8-2,2.2-3,2.2c-26.9,0.1-53.7,0.1-81.3,0.1c0-43.1,0-85.6,0-129c27.8,0,55.9,0,84.5,0
		c0,7,0,14,0,21.8c-19.1,0-37.6,0-57.2,0c0,10.2,0,19.6,0,30.1c17.5,0,35.2,0,52.2,0c1.1,1.7,1.8,2.3,1.9,2.9
		c1.4,19.4,1.4,19.3-18.1,19.2c-9.7-0.1-19.4,0.4-29,0.1c-6-0.2-8.5,1.9-8.2,8c0.4,7.9,0.2,15.8,0.3,23.6c2.9,1.2,5.8,3.4,8.8,3.5
		c8.9,0.5,17.8,0,26.7,0.2c6.3,0.1,13.5-0.9,18.6,1.7c2.8,1.5,2.2,9.5,3.2,14.6C963.1,172.5,963.5,172.7,963.8,173z"/>
	<path class="st0" d="M476.4,115c-4.9-14.4-11.2-19.2-22.7-17.4c-11.7,1.8-17.3,9.7-17.4,24.3c0,17.2,0,34.4,0,52.5
		c-8.4,0-16.4,0-25.3,0c0-44.3,0-88.9,0-135.2c6.4,0,13.1-0.6,19.6,0.4c2,0.3,4.7,4.7,4.8,7.4c0.5,14.3,0.2,28.6,0.2,45.1
		c3-3.2,4.7-5,6.5-6.8c10.8-10.8,23.9-12.4,37.8-8.4c12.2,3.5,20.2,12.3,20.7,24.8c1,24.3,0.3,48.6,0.3,74.5
		c-8.5-0.9-16.4-1.7-24.3-2.5c0.9-2.2,2.4-4.4,2.4-6.6c0.2-15.2,0.2-30.4,0-45.7C479.1,119.2,477.4,117.1,476.4,115z"/>
	<path class="st0" d="M339.4,47.6c3.5,0.2,7.1,0.4,10.6,0.6c5.8,0.6,11.6,1.3,17.5,1.9c3.2,1.2,6.9,1.7,9.6,3.7
		c14.8,10.7,20.9,32.3,15,51.4c-5.3,17.1-19.5,28.3-38.2,29.4c-8.2,0.5-16.5,0.6-24.7,0.2c-5.8-0.3-7.6,1.9-7.5,7.4
		c0.3,10.6,0.1,21.3,0.1,33.9c-9.6-1.1-17.7-2.1-25.7-3c0.8-3.7,2.2-7.4,2.2-11.1c0.2-37.3,0.2-74.6,0.2-111.8
		c5.4,0,10.8,0.3,16.1-0.1C322.8,49.6,331.1,48.5,339.4,47.6z M322.3,113.1c14.7-1.4,30.3,5.1,40.9-9.9c6-8.4,5.4-18.3-0.3-25.9
		c-10.4-14-26.2-8.7-40.7-10C322.3,83.1,322.3,97.5,322.3,113.1z"/>
	<path class="st0" d="M1172.3,76.7c7.1,0,12.5,0.4,17.7-0.1c8.2-0.8,12.3,2.5,14.4,10.7c4.7,18.8,10.3,37.3,15.6,55.9
		c0.6,2,1.4,3.9,4.4,6.2c3.3-11.7,6.6-23.3,9.8-35c1.7-5.9,3.4-11.7,5-17.6c6.1-22.6,7.3-23.3,32.9-18.7
		c-8.4,24.8-16.8,49.5-25.2,74.1c-3.5,10.2-6.8,20.4-10.7,30.4c-8,20.7-20.7,28.9-42.7,29.2c-8.1,0.1-11.3-2.8-10.6-10.6
		c0.3-3.2,0-6.4,0-9.1c1.1-0.9,1.7-1.6,2.2-1.7c21.1-1.6,24.5-6.5,17.6-26.5C1192.9,135.6,1182.9,107.2,1172.3,76.7z"/>
	<path class="st0" d="M518.4,148.9 M607.3,114c0,20,0,40,0,60.7 M522.9,104.2"/>
	<path class="st0" d="M194.3,200.9c0.9,1.8,1.7,3.5,2.6,5.3c0,0,0.1,0.4,0.1,0.4c0.7,1.9,1.3,3.9,2,5.8c0,0-0.1,0.2-0.1,0.2
		c-0.4,1.3-0.8,2.5-1.3,3.8c-1.7,2.1-3.3,4.1-5,6.2c0,0-0.1,0.1-0.1,0.1c-1.1,1.1-2.2,2.1-3.3,3.2l-0.7-0.7c0,0,0.8,0.6,0.8,0.6
		c-1.1,1.1-2.1,2.2-3.2,3.3c0,0,0,0,0,0c-1.1,1.1-2.2,2.1-3.3,3.2c0,0,0,0-0.1,0c-0.7,0.7-1.4,1.4-2.1,2.1c0,0,0,0,0,0
		c-1.1,1.1-2.1,2.2-3.2,3.3c0,0,0,0,0,0c-2.2,2-4.3,4.1-6.5,6.1c-4.6,4.4-8.8,9.4-13.9,13.2c-7.3,5.3-15,5.1-21-2.1
		c-5.8-7-5.8-14.6,0.9-21.2c7.8-7.7,16-15.2,22.9-21.7c-12.3-13.2-23.3-25.4-34.8-36.9c-1.2-1.2-6.5,0-8.6,1.7
		c-6.6,5.5-12.4,11.9-18.8,17.6c-8,7.2-17.5,7.1-23.9,0.2c-6-6.5-5.2-14.9,2.6-22.8c10.6-10.6,21.1-21.5,32.4-31.4
		c3.8-3.3,9.8-4.1,14.9-6.1c4.6,3.2,9.2,6.5,13.7,9.7c0,0,0,0.1,0,0.1c0.7,0.7,1.4,1.4,2.2,2.2l-0.7,0.5c0,0,0.6-0.6,0.6-0.6
		c1.2,1,2.3,2.1,3.5,3.1c0,0,0,0,0,0c1.1,1.1,2.2,2.1,3.2,3.2l-0.5,0.3c0,0,0.6-0.2,0.6-0.2c0.7,0.6,1.3,1.3,2,1.9
		c0,0,0.3,0.2,0.2,0.2c0.6,0.6,1.3,1.3,1.9,1.9c0,0,0.2,0.3,0.2,0.3c0.6,0.6,1.3,1.3,2,1.9l-0.3,0.6c0,0,0.4-0.5,0.4-0.5
		c1.1,1,2.3,2.1,3.4,3.1c0,0,0,0,0,0c1.1,2.8,1.6,6.2,3.5,8.2c6.7,6.8,13.7,13.3,20.9,19.5c3.8,3.3,8.3,5.9,12.5,8.8
		c0,0-0.1-0.1-0.1-0.1C193.4,199.3,193.8,200.1,194.3,200.9z"/>
	<path class="st0" d="M1066.5,169.5c-1.5,1.9-2.7,5.4-4.4,5.5c-6,0.7-12.1,0.3-18.6,0.3c-0.7-3.5-1.4-6.6-2.1-10.3
		c-1.3,0.7-2.6,1-3.4,1.8c-11.7,12-25.7,13.5-40.6,8.1c-12.2-4.4-19.3-16-18.6-28.7c0.6-12.5,7.9-22.1,21.3-25.1
		c13.2-2.9,26.8-4.2,43.3-6.6c-2.7-5.9-4-14.5-7.7-15.7c-7.1-2.3-17.6-3.3-23,0.5c-9.8,6.9-18.9,3.8-28.9,4.8
		c0.2-12.3,7-19.3,15.9-23.5c16.6-7.8,34-8.7,51-0.8c9.2,4.3,15.4,11.4,16.2,22.2c-1.2,1.9-3.4,3.7-3.5,5.6
		c-0.3,18.6-0.2,37.1,0,55.7C1063.3,165.4,1065.4,167.5,1066.5,169.5z M1040.6,131.7c-9.5,1.3-18.6,1.5-27,4
		c-3.6,1.1-8.3,6.7-8.3,10.2c0.1,3.7,4.4,9,8.2,10.6C1028.6,162.9,1042.8,150.7,1040.6,131.7z"/>
	<path class="st0" d="M1166,103.9c-10.8-0.5-20.6,3.5-29-6c-2.7-3.1-9.7-4.7-13.9-3.6c-5.5,1.5-10,6.3-15,9.7
		c4.2,3.1,8,7.5,12.7,9.2c9,3.3,18.7,4.8,28,7.5c10.9,3.1,18.1,10.1,19.7,21.7c1.7,12.1-4.2,20.8-13.6,27.3
		c-15.2,10.6-46.7,11.2-61.4,0.1c-6-4.5-9.7-12-13.4-19.6c11.2-2.1,21.1-5.1,30,3.4c5.7,5.4,22.3,5.9,28.4,1.1
		c1.9-1.5,4-5.2,3.4-7.1c-1-2.9-3.7-6.3-6.5-7.2c-10.2-3.2-20.9-5-31.2-8.2c-16.1-5-23.9-17-21.2-31.3c2.2-11.8,10.1-18.9,20.7-22.7
		c14.7-5.3,29.7-4.9,44.2,0.8C1158.4,83,1164.8,90.7,1166,103.9z"/>
	<path class="st0" d="M654.4,89.6c3.3-3,6.2-7.3,10.1-8.6c7.8-2.6,16.7-6,23.9-4.1c3.3,0.9,3.7,13.2,6,22.4
		c-18.5-2.3-33.7-1.5-39,17.8c-1.3,2.9-3.5,5.8-3.6,8.7c-0.4,15.7-0.2,31.4-0.3,47.1c-1.4,0.8-2.8,1.5-4.2,2.3c-1.4,0-2.8,0-4.3,0
		c-10.8-5.3-8.7-15.1-8.6-24.2c0-19,0-38,0-57c0-15.2,0.2-15.4,15.3-12.7C651.4,84.4,652.9,87,654.4,89.6z"/>
	<path class="st0" d="M654.4,89.6c-1.5-2.6-3-5.2-4.7-8.1c-15.1-2.7-15.3-2.6-15.3,12.7c0,19,0,38,0,57c0,9.1-2.1,19,8.6,24.2
		c-3.8,0-7.7,0-12.2,0c0-32.6,0-64.7,0-97.4c7.7,0,15.5,0,24.4,0C654.9,82.1,654.6,85.9,654.4,89.6z"/>
	<path class="st0" d="M852.5,173.7c-0.3-0.2-0.7-0.5-0.7-0.7c0-24.4,0.1-48.8,0.2-73.2c0.6,0.4,0.7,0.9,0.3,1.5
		c-0.1,0.3-0.3,0.6-0.2,0.9c0.1,0.6,0.4,1.1,0.7,1.7c0.1,22.4,0.1,44.8,0.2,67.2c-0.1,0.8-0.3,1.6-0.4,2.4
		C852.5,173.5,852.5,173.7,852.5,173.7z"/>
	<path class="st0" d="M963.8,173c-0.2-0.3-0.6-0.5-0.7-0.8c-1-5.1-0.4-13.1-3.2-14.6c-5.1-2.7-12.3-1.6-18.6-1.7
		c-8.9-0.2-17.8,0.3-26.7-0.2c-3-0.2-5.9-2.3-8.8-3.5c18.4,0.1,36.9,0.3,55.3,0.4c0.7,0,1.3,0.4,2.8,1
		C963.8,159.8,963.8,166.4,963.8,173z"/>
	<path class="st0" d="M298.4,50.3c0,37.3,0,74.6-0.2,111.8c0,3.7-1.4,7.4-2.2,11.1c0-41.7,0-83.4,0-125.2
		C296.8,48.8,297.6,49.5,298.4,50.3z"/>
	<path class="st0" d="M1066.5,169.5c-1.1-2.1-3.2-4.1-3.2-6.2c-0.3-18.6-0.3-37.1,0-55.7c0-1.9,2.3-3.7,3.5-5.6
		c0,19.4,0,38.8,0,58.2c-0.1,1.9-0.3,3.8-0.4,5.6C1066.4,167.1,1066.4,168.3,1066.5,169.5z"/>
	<path class="st0" d="M651.5,173c0-15.7-0.1-31.4,0.3-47.1c0.1-2.9,2.3-5.8,3.6-8.7c0,16.6,0.2,33.3-0.2,49.9
		c-0.1,2.7-2.3,5.4-3.6,8.1C651.5,174.4,651.5,173.7,651.5,173z"/>
	<path class="st0" d="M193.1,198.6c-4.2-2.9-8.7-5.5-12.5-8.8c-7.2-6.2-14.2-12.7-20.9-19.5c-1.9-2-2.4-5.4-3.5-8.2
		C168.4,174.3,180.8,186.4,193.1,198.6z"/>
	<path class="st0" d="M770.1,175c5.9-2,11.7-4.1,19.4-6.7c0-13.9-0.2-29.2,0.1-44.5c0.1-3.6,1.6-7.3,2.5-10.9
		c0.1,16.4-0.4,32.8,0.6,49.1c0.7,11.2-3.5,15-14,13.5C775.8,175,772.9,175.1,770.1,175z"/>
	<path class="st0" d="M298.4,50.3c-0.8-0.8-1.6-1.5-2.3-2.3c14.4-0.1,28.9-0.3,43.3-0.4c-8.3,0.9-16.6,1.9-24.9,2.6
		C309.1,50.6,303.7,50.3,298.4,50.3z"/>
	<path class="st0" d="M476.4,115c0.9,2.1,2.7,4.2,2.7,6.3c0.2,15.2,0.2,30.4,0,45.7c0,2.2-1.6,4.4-2.4,6.6c0,0,0-0.1,0-0.1
		c0-1.1-0.1-2.3-0.1-3.4C476.5,151.7,476.5,133.3,476.4,115z"/>
	<path class="st0" d="M137.5,144c-4.6-3.2-9.2-6.5-13.7-9.7C128.3,137.6,132.9,140.8,137.5,144z"/>
	<path class="st0" d="M367.5,50.1c-5.8-0.6-11.6-1.3-17.5-1.9C355.8,48.9,361.7,49.5,367.5,50.1z"/>
	<path class="st0" d="M171,243.7c2.2-2,4.3-4.1,6.5-6.1C175.3,239.7,173.2,241.7,171,243.7z"/>
	<path class="st0" d="M651.5,173c0,0.7,0.1,1.5,0.1,2.2c-1.4,0-2.9,0.1-4.3,0.1C648.7,174.5,650.1,173.7,651.5,173z"/>
	<path class="st0" d="M192.7,222.5c1.7-2.1,3.3-4.1,5-6.2C196,218.4,194.3,220.5,192.7,222.5z"/>
	<path class="st0" d="M143.1,149.4c-1.2-1-2.3-2.1-3.5-3.1C140.7,147.3,141.9,148.3,143.1,149.4z"/>
	<path class="st0" d="M146.3,152.6c-1.1-1.1-2.2-2.1-3.2-3.2C144.2,150.5,145.2,151.5,146.3,152.6z"/>
	<path class="st0" d="M156.2,162.2c-1.1-1-2.3-2.1-3.4-3.1C153.9,160.1,155,161.1,156.2,162.2z"/>
	<path class="st0" d="M1066.3,165.8c0.1-1.9,0.3-3.8,0.4-5.6C1066.6,162.1,1066.4,164,1066.3,165.8z"/>
	<path class="st0" d="M607.1,168.7c-1.5,1.9-2.7,5.4-4.4,5.5c-6,0.7-12.1,0.3-18.6,0.3c-0.7-3.5-1.4-6.6-2.1-10.3
		c-1.3,0.7-2.6,1-3.4,1.8c-11.7,12-25.7,13.5-40.6,8.1c-12.2-4.4-19.3-16-18.6-28.7c0.6-12.5,7.9-22.1,21.3-25.1
		c13.2-2.9,26.8-4.2,43.3-6.6c-2.7-5.9-4-14.5-7.7-15.7c-7.1-2.3-17.6-3.3-23,0.5c-9.8,6.9-18.9,3.8-28.9,4.8
		c0.2-12.3,7-19.3,15.9-23.5c16.6-7.8,34-8.7,51-0.8c9.2,4.3,15.4,11.4,16.2,22.2c-1.2,1.9-3.4,3.7-3.5,5.6
		c-0.3,18.6-0.2,37.1,0,55.7C603.9,164.6,606,166.6,607.1,168.7z M581.2,130.9c-9.5,1.3-18.6,1.5-27,4c-3.6,1.1-8.3,6.7-8.3,10.2
		c0.1,3.7,4.4,9,8.2,10.6C569.2,162.1,583.4,149.9,581.2,130.9z"/>
	<path class="st0" d="M607.1,168.7c-1.1-2.1-3.2-4.1-3.2-6.2c-0.3-18.6-0.3-37.1,0-55.7c0-1.9,2.3-3.7,3.5-5.6c0,19.4,0,38.8,0,58.2
		c-0.1,1.9-0.3,3.8-0.4,5.6C607,166.3,607.1,167.5,607.1,168.7z"/>
	<path class="st0" d="M606.9,165c0.1-1.9,0.3-3.8,0.4-5.6C607.2,161.3,607.1,163.1,606.9,165z"/>
	<path class="st0" d="M189.3,225.8c1.1-1.1,2.2-2.1,3.3-3.2C191.5,223.6,190.4,224.7,189.3,225.8z"/>
	<path class="st0" d="M186.2,229c1.1-1.1,2.1-2.2,3.2-3.3C188.3,226.8,187.3,227.9,186.2,229z"/>
	<path class="st0" d="M182.9,232.2c1.1-1.1,2.2-2.1,3.3-3.2C185.1,230.1,184,231.2,182.9,232.2z"/>
	<path class="st0" d="M177.5,237.6c1.1-1.1,2.1-2.2,3.2-3.3C179.7,235.4,178.6,236.5,177.5,237.6z"/>
	<path class="st0" d="M852.7,103.9c-0.2-0.6-0.5-1.1-0.7-1.7c-0.1-0.3,0.1-0.6,0.2-0.9c0.3,0.6,0.7,1.1,0.9,1.7
		C853.3,103.2,852.9,103.6,852.7,103.9z"/>
	<path class="st0" d="M148.3,154.6c-0.7-0.6-1.3-1.3-2-1.9C147,153.3,147.7,154,148.3,154.6z"/>
	<path class="st0" d="M150.5,156.7c-0.6-0.6-1.3-1.3-1.9-1.9C149.2,155.5,149.9,156.1,150.5,156.7z"/>
	<path class="st0" d="M152.7,159c-0.7-0.6-1.3-1.3-2-1.9C151.4,157.7,152,158.3,152.7,159z"/>
	<path class="st0" d="M476.6,170c0,1.1,0.1,2.3,0.1,3.4C476.6,172.3,476.6,171.1,476.6,170z"/>
	<path class="st0" d="M139.6,146.3c-0.7-0.7-1.4-1.4-2.2-2.2C138.2,144.9,138.9,145.6,139.6,146.3z"/>
	<path class="st0" d="M194.3,200.9c-0.4-0.8-0.9-1.6-1.3-2.4C193.4,199.3,193.8,200.1,194.3,200.9z"/>
	<path class="st0" d="M197,206.6c0,0-0.1-0.4-0.1-0.4c0,0,0.4,0.3,0.4,0.3L197,206.6z"/>
	<path class="st0" d="M198.9,212.6c0,0,0.1-0.2,0.1-0.2c0,0,0.6,0.4,0.6,0.4L198.9,212.6z"/>
	<path class="st0" d="M180.8,234.3c0.7-0.7,1.4-1.4,2.1-2.1C182.1,232.9,181.5,233.6,180.8,234.3z"/>
	<path class="st0" d="M852.5,173.5c0.1-0.8,0.3-1.6,0.4-2.4c0.1,0.6,0.3,1.2,0.4,1.8C853.3,173.1,852.8,173.3,852.5,173.5z"/>
</g>
</svg>
