<?xml version="1.0" encoding="utf-8"?>
<!-- Generator: Adobe Illustrator 23.0.1, SVG Export Plug-In . SVG Version: 6.00 Build 0)  -->
<svg version="1.1" id="Layer_1" xmlns="http://www.w3.org/2000/svg" xmlns:xlink="http://www.w3.org/1999/xlink" x="0px" y="0px"
	 viewBox="0 0 124 42" style="enable-background:new 0 0 124 42;" xml:space="preserve">
<style type="text/css">
	.st0{clip-path:url(#SVGID_2_);}
	.st1{fill:#444444;}
</style>
<g>
	<defs>
		<rect id="SVGID_1_" width="124" height="42"/>
	</defs>
	<clipPath id="SVGID_2_">
		<use xlink:href="#SVGID_1_"  style="overflow:visible;"/>
	</clipPath>
	<g class="st0">
		<path class="st1" d="M89.6,13.7c0,0.5,0,1,0,1.5c0,0,0.1,0,0.1,0c0.7-0.9,1.6-1.5,2.7-1.8c1.2-0.3,2.3-0.2,3.4,0.2
			c0.8,0.3,1.5,0.9,2,1.6c0,0.1,0.1,0.2,0.2,0.3c0-0.1,0.1-0.2,0.1-0.2c0.8-1.1,1.9-1.8,3.2-2c1.3-0.2,2.6-0.1,3.8,0.5
			c1.5,0.7,2.3,2,2.6,3.6c0.1,0.4,0.1,0.9,0.1,1.3c0,3,0,6,0,9.1c0,0.1,0,0.2,0,0.4c-1.4,0-2.8,0-4.2,0c0-0.2,0-0.3,0-0.4
			c0-2.6,0-5.2,0-7.8c0-0.3,0-0.6-0.1-0.9c-0.2-0.9-0.8-1.5-1.7-1.7c-0.8-0.1-1.7,0-2.3,0.7c-0.4,0.5-0.6,1.1-0.6,1.7
			c0,1.1,0,2.3,0,3.4c0,1.5,0,3.1,0,4.6c0,0.1,0,0.2,0,0.4c-1.5,0-2.9,0-4.3,0c0-0.1,0-0.2,0-0.4c0-2.6,0-5.2,0-7.8
			c0-0.4,0-0.8-0.2-1.2c-0.4-0.9-1-1.3-1.9-1.4c-0.3,0-0.7,0-1,0.1c-0.9,0.3-1.4,0.9-1.6,1.8c0,0.2,0,0.4,0,0.7c0,2.6,0,5.2,0,7.8
			c0,0.1,0,0.2,0,0.4c-1.5,0-2.9,0-4.4,0c0-4.8,0-9.6,0-14.4C86.7,13.7,88.1,13.7,89.6,13.7z"/>
		<path class="st1" d="M119.8,15.1c0-0.4,0-0.9,0-1.3c1.4,0,2.8,0,4.2,0c0,0.1,0,0.2,0,0.3c0,4.3,0,8.7,0,12.9
			c0,1.6-0.4,3.1-1.2,4.6c-0.8,1.5-2.1,2.4-3.6,2.9c-1.9,0.5-3.8,0.5-5.6,0c-1.5-0.4-2.6-1.3-3.5-2.6c-0.4-0.5-0.6-1.1-0.8-1.8
			c0-0.1,0-0.1,0-0.2c0,0,0-0.1,0-0.2c1.3-0.4,2.5-0.7,3.8-1.1c0,0.1,0.1,0.2,0.1,0.3c0.4,1.2,1.4,2.1,2.9,2.2c0.5,0,1.1,0,1.5-0.2
			c1.1-0.4,1.7-1.3,2-2.4c0.2-0.7,0.2-1.4,0.2-2.2l0,0h0c-0.6,0.8-1.4,1.2-2.4,1.3c-1.3,0.2-2.5,0.2-3.7-0.3
			c-2.1-0.8-3.5-2.3-4.1-4.4c-0.6-2-0.4-3.9,0.5-5.7c0.8-1.6,2-2.7,3.7-3.3c1.3-0.4,2.6-0.4,3.9-0.1
			C118.4,13.9,119.2,14.4,119.8,15.1z M113.5,20.5c0,0.2,0,0.3,0,0.4c0.1,1.2,0.7,2.1,1.8,2.5c0.4,0.2,1,0.2,1.5,0.2
			c1.4-0.1,2.3-0.9,2.7-2c0.2-0.5,0.2-1,0.2-1.6c-0.2-2-2-3.3-4-2.7C114.3,17.9,113.5,19,113.5,20.5z"/>
		<path class="st1" d="M85.4,11.7c0-1.5,0-3,0-4.5c12.9,0,25.7,0,38.6,0c0.1,0.2,0.1,3.9,0,4.5C123.7,11.8,86,11.8,85.4,11.7z"/>
		<path class="st1" d="M79,34.7c0-1.5,0-3,0-4.5c9.6,0,19.1,0,28.7,0c0,1.5,0,3,0,4.5C98.1,34.7,88.6,34.7,79,34.7z"/>
		<path class="st1" d="M83.5,28.2c-1.5,0-3,0-4.5,0c0-0.7,0-1.3,0-2c0-0.7,0-1.3,0-2s0-1.3,0-2c0-0.7,0-1.3,0-2c0-0.7,0-1.3,0-2
			c0-0.7,0-1.3,0-2c0-0.7,0-1.3,0-2.1c-1.5,0-3,0-4.4,0c0-1,0-2,0-3.1c0.1,0,0.2,0,0.4,0c1.3-0.1,2.4-0.4,3.4-1.3
			c0.6-0.5,1.1-1.2,1.3-2c0,0,0-0.1,0-0.2c1.3,0,2.6,0,3.9,0C83.5,14.2,83.5,21.2,83.5,28.2z"/>
		<path class="st1" d="M35.1,29.6c-0.3,0-0.6,0-0.8,0c-1.8,0-3.7,0-5.5,0c-0.3,0-0.4-0.1-0.5-0.3c-1.1-3.2-2.2-6.3-3.2-9.5
			c0-0.1-0.1-0.2-0.2-0.4c-0.1,0.4-0.2,0.6-0.3,0.9c-1,3-2,6-3,9c-0.1,0.3-0.2,0.4-0.5,0.4c-1.9,0-3.9,0-5.9,0c-0.1,0-0.2,0-0.4,0
			c0.2-0.5,0.4-1,0.5-1.5c1.9-5.1,3.9-10.3,5.8-15.4c0.1-0.3,0.2-0.4,0.6-0.4c2.1,0,4.2,0,6.4,0c0.3,0,0.4,0.1,0.5,0.4
			c2.1,5.5,4.2,11.1,6.4,16.6C35.1,29.4,35.1,29.5,35.1,29.6z"/>
		<path class="st1" d="M68.8,29.6c-0.2,0-0.3,0-0.4,0c-2,0-4,0-5.9,0c-0.3,0-0.4-0.1-0.5-0.3c-1.1-3.2-2.2-6.3-3.2-9.5
			c0-0.1-0.1-0.2-0.2-0.4c-0.1,0.2-0.1,0.4-0.2,0.5c-1.1,3.1-2.1,6.2-3.2,9.4c-0.1,0.3-0.2,0.4-0.5,0.4c-1.9,0-3.8,0-5.8,0
			c-0.1,0-0.2,0-0.4,0c0-0.2,0.1-0.3,0.1-0.4c2.1-5.5,4.2-11,6.2-16.5c0.1-0.3,0.2-0.4,0.6-0.4c2.1,0,4.3,0,6.4,0
			c0.2,0,0.4,0.1,0.5,0.3c2.1,5.6,4.3,11.1,6.4,16.7C68.7,29.4,68.7,29.5,68.8,29.6z"/>
		<path class="st1" d="M50.2,12.4c0,1.7,0,3.3,0,5.1c-1.6,0-3.1,0-4.7,0c0,4.1,0,8.1,0,12.2c-2.3,0-4.6,0-6.9,0c0-4,0-8.1,0-12.2
			c-1.7,0-3.3,0-4.9,0c0-1.7,0-3.4,0-5.1C39.1,12.4,44.6,12.4,50.2,12.4z"/>
		<path class="st1" d="M0,12.4c5.5,0,11,0,16.5,0c0,1.7,0,3.3,0,5.1c-1.6,0-3.1,0-4.7,0c0,4.1,0,8.1,0,12.2c-2.3,0-4.6,0-6.9,0
			c0-4,0-8.1,0-12.2c-1.7,0-3.2,0-4.9,0C0,15.7,0,14.1,0,12.4z"/>
	</g>
</g>
</svg>
