<?xml version="1.0" encoding="utf-8"?>
<!-- Generator: Adobe Illustrator 23.0.1, SVG Export Plug-In . SVG Version: 6.00 Build 0)  -->
<svg version="1.1" id="Layer_1" xmlns="http://www.w3.org/2000/svg" xmlns:xlink="http://www.w3.org/1999/xlink" x="0px" y="0px"
	 viewBox="0 0 309.4 580.2" style="enable-background:new 0 0 309.4 580.2;" xml:space="preserve">
<style type="text/css">
	.st0{opacity:0.1;fill:#0D3B48;}
	.st1{fill:#FFA666;}
	.st2{fill:#967876;}
	.st3{fill:#5F4645;}
	.st4{fill:#F8B780;}
	.st5{fill:#DC9B67;}
	.st6{fill:#5D5D5D;}
	.st7{opacity:0.5;fill:#111114;}
	.st8{fill:#454545;}
	.st9{fill:#FFE8AE;}
	.st10{fill:#00B8A6;}
	.st11{fill:#F2BEB1;}
	.st12{fill:#D7A095;}
	.st13{fill:#0D3B48;}
	.st14{fill:#002938;}
	.st15{fill:#FFFFFF;}
	.st16{fill:#C5F4FF;stroke:#F1AB65;stroke-width:0.6159;stroke-miterlimit:10;}
	.st17{fill:#F1AB65;}
	.st18{fill:none;stroke:#F1AB65;stroke-width:0.7414;stroke-miterlimit:10;}
	.st19{fill:#F2EFEF;}
</style>
<g>
	<path class="st0" d="M309.4,548.8c0.1,6.6-74.9,13.6-167.6,15.7c-92.7,2.1-168-1.6-168.1-8.2c-0.1-6.6,74.9-13.6,167.6-15.7
		C234,538.6,309.3,542.2,309.4,548.8z"/>
	<polygon class="st1" points="182.9,505.2 198.7,542.2 185.3,551.5 166.3,512.4 	"/>
	<g>
		<polygon class="st1" points="123.5,514.7 128,554.8 112.5,559.8 105.5,516.9 		"/>
		<path class="st2" d="M103.9,536.3c0,0-9.3,11.4-23.3,15.4c-14.1,4-26.8,9.1-25.7,17.1c0,0,20.9,9.7,54.9-1l0,3.4l22.3-0.9l0-28.1
			l-18.5,1.2l1.4-2.8L103.9,536.3z"/>
		<g>
			<path class="st3" d="M94.9,568.2c-30.4,7.4-38.2-0.9-39.9-1.4c-0.2,0.7-0.3,1.4-0.2,2.1c0,0,20.9,9.7,54.9-1l0,3.4l22.3-0.9
				l0-5.6C124,565.2,117.4,562.8,94.9,568.2z"/>
		</g>
	</g>
	<path class="st4" d="M100.5,373.9c0,15.7,12.7,28.4,28.4,28.4H256c15.7,0,28.4-12.7,28.4-28.4V255.7c0-15.7-12.7-28.4-28.4-28.4
		H128.9c-15.7,0-28.4,12.7-28.4,28.4V373.9z"/>
	<path class="st5" d="M83.6,373.9c0,15.7,12.7,28.4,28.4,28.4h127.1c15.7,0,28.4-12.7,28.4-28.4V255.7c0-15.7-12.7-28.4-28.4-28.4
		H112.1c-15.7,0-28.4,12.7-28.4,28.4V373.9z"/>
	<g>
		<path class="st6" d="M227,546.5c0,4,3.7,7.2,8.2,7.2l0,0c4.5,0,8.2-3.2,8.2-7.2v-29.9c0-4-3.7-7.2-8.2-7.2l0,0
			c-4.5,0-8.2,3.2-8.2,7.2V546.5z"/>
		<path class="st7" d="M227,521.9v-5.3c0-4,3.7-7.2,8.2-7.2c4.5,0,8.2,3.2,8.2,7.2v5.9C237.9,522,232.5,521.9,227,521.9z"/>
		<path class="st6" d="M266.1,546.5c0,4,3.7,7.2,8.2,7.2l0,0c4.5,0,8.2-3.2,8.2-7.2v-29.9c0-4-3.7-7.2-8.2-7.2l0,0
			c-4.5,0-8.2,3.2-8.2,7.2V546.5z"/>
		<path class="st7" d="M266.1,521.9v-5.3c0-4,3.7-7.2,8.2-7.2c4.5,0,8.2,3.2,8.2,7.2v5.9C277.1,522,271.6,521.9,266.1,521.9z"/>
		<path class="st6" d="M25.6,546.5c0,4,3.7,7.2,8.2,7.2l0,0c4.5,0,8.2-3.2,8.2-7.2v-29.9c0-4-3.7-7.2-8.2-7.2l0,0
			c-4.5,0-8.2,3.2-8.2,7.2V546.5z"/>
		<path class="st7" d="M25.6,521.9v-5.3c0-4,3.7-7.2,8.2-7.2c4.5,0,8.2,3.2,8.2,7.2v5.9C36.5,522,31.1,521.9,25.6,521.9z"/>
		<path class="st8" d="M69,544.5c0,3.9,3.6,7,8,7l0,0c4.4,0,8-3.1,8-7v-28.1c0-3.9-3.6-7-8-7l0,0c-4.4,0-8,3.1-8,7V544.5z"/>
		<path class="st7" d="M69,521.5v-5.2c0-3.9,3.6-7,8-7c4.4,0,8,3.1,8,7v5.8C79.7,521.7,74.3,521.5,69,521.5z"/>
		<path class="st9" d="M8.3,504.7c0,6.9,5.6,12.6,12.6,12.6l0,0c6.9,0,12.6-5.6,12.6-12.6V317.3c0-6.9-5.6-12.6-12.6-12.6l0,0
			c-6.9,0-12.6,5.6-12.6,12.6V504.7z"/>
		<path class="st4" d="M6.8,498.3c0,11.1,9,20.1,20.1,20.1h38.6c11.1,0,20.1-9,20.1-20.1V312.5c0-11.1-9-20.1-20.1-20.1H26.9
			c-11.1,0-20.1,9-20.1,20.1V498.3z"/>
		<path class="st5" d="M25.5,498.3c0,11.1,10.6,20.1,23.7,20.1h23.4c13.1,0,23.7-9,23.7-20.1V312.5c0-11.1-10.6-20.1-23.7-20.1H49.2
			c-13.1,0-23.7,9-23.7,20.1V498.3z"/>
		<path class="st4" d="M8.1,498.3c0,11.1,9,20.1,20.1,20.1h226.5c11.1,0,20.1-9,20.1-20.1v-88.4c0-11.1-9-20.1-20.1-20.1H28.2
			c-11.1,0-20.1,9-20.1,20.1V498.3z"/>
	</g>
	<path class="st10" d="M142.6,316.6l-80.9,35.6c0,0-19.6,17-11.3,47.2C65,452.3,92.6,525.8,92.6,525.8s21,8.4,36.5-7.9
		C118.8,478.7,99,401.9,99,401.9l108.4-72.3L142.6,316.6z"/>
	<path class="st0" d="M142.6,316.6l-80.9,35.6c0,0-19.6,17-11.3,47.2C65,452.3,92.6,525.8,92.6,525.8s24.8,6.9,36.5-7.9
		C123.5,502,99,401.9,99,401.9l108.4-72.3L142.6,316.6z"/>
	<path class="st10" d="M182,325.2c0,0-91.8,13.2-93,59.7c-1.2,46.5,55.1,120.5,68.7,139.4c19.6,2,35-17.4,35-17.4
		s-44.5-103.1-53.9-110.7L208,395l-0.6-65.4L182,325.2z"/>
	<g>
		<path class="st11" d="M54.6,191.2l-3.2-7.2c0,0,8.9-21.6,4.1-18c-3.5,2.6-7.6,8-7.6,8s-11.5-23.9-14.3-24
			c-2.8-0.1,3.5,17.3,3.5,17.3s-8-20.9-11.8-20.6c-3.8,0.3,6.5,22.7,6.5,22.7S19.3,150.1,18,150.9c-3.1,2.1,8.4,22.4,8.4,22.4
			s-8.9-11.7-11.8-10.8c-2.9,0.8,24.2,37.8,24.2,37.8L54.6,191.2z"/>
		<g>
			<polygon class="st12" points="218.2,110.3 214.1,157.9 214.7,182.4 196.3,185.7 174.8,190 180.6,155 185.1,119.1 			"/>
			<path class="st11" d="M217,29.1c23.4,8.1,21,24.5,21,24.5s0.4,9.8-1.7,24.9c2.6-2.8,6.4-3.7,10.1-1.6c7.8,4.4-1.1,29.5-13.2,25.9
				c-1.3,7.1-5.2,15.5-6.3,17.3c-4.3,6.9-20.8,16.4-34.6,16.7c-13.8,0.3-30.3-9.2-29.8-25.3c0.6-22.3,8.8-69.8,8.8-69.8
				S178.2,15.7,217,29.1z"/>
			<path class="st13" d="M224.3,43.5c6.5,0.7,16.9-0.4,23.4,0.1c0.1-0.7-0.4,4.8-0.5,4.8c-1.4,2.7-4,28-4,28
				c-6.5-0.4-6.9,4.8-6.9,4.8l-2.1,11.6l-6.4-1.4l2.3-24.7c-4.1-2.8-5.1-6.9-5.1-6.9S224.9,48,224.3,43.5z"/>
			<g>
				<path class="st14" d="M221.7,59.8c-1.8-1.2-3.6-2.2-5.6-3.1c-1.9-0.8-3.9-1.4-6-1.6c-1-0.2-2-0.1-3.1-0.2
					c-1,0.1-2.1,0.2-3.1,0.4c-1,0.2-2,0.5-3,0.9c-0.5,0.1-1,0.4-1.5,0.6c-0.5,0.2-1,0.4-1.5,0.6c0.4-0.3,0.9-0.7,1.3-1
					c0.4-0.3,0.9-0.7,1.4-0.9l1.5-0.7c0.5-0.3,1-0.4,1.6-0.6c1-0.4,2.2-0.5,3.2-0.7c1.1,0,2.2-0.1,3.3,0.1c2.2,0.3,4.3,1,6.3,2
					C218.6,56.8,220.3,58.1,221.7,59.8z"/>
			</g>
			<g>
				<path class="st14" d="M187.7,61c-1.3-1.3-2.7-2.4-4.2-3.2c-1.5-0.9-3.1-1.5-4.8-1.6l-0.6-0.1l-0.6,0c-0.4,0-0.8,0-1.3,0.1
					l-1.2,0.3l-1.2,0.4l-0.6,0.2l-0.6,0.3l-1.2,0.6c-0.8,0.5-1.5,1-2.3,1.5c0.6-0.7,1.2-1.4,1.9-2l1.1-0.8l0.6-0.4l0.6-0.3
					c1.6-1,3.6-1.3,5.5-1.2c1.9,0.2,3.7,1,5.2,2.1C185.6,58,186.9,59.4,187.7,61z"/>
			</g>
			<path class="st13" d="M189.8,97.5c0,0,19.7-2.1,22.1,4.3c2.4,6.4,2.7,13.1,8.3,11.2c5.6-1.8,10-50.3,10-50.3l5.5,16.8
				c0,0,5.8,65.2-33.2,62.8c-41-2.4-45.7-14.7-40-35.9c0,0,4.3,2.6,7.1-3C172.5,98,168.6,92.4,189.8,97.5z"/>
			<path class="st15" d="M206.4,107.6l-31.2-2.4C175.2,105.2,182.8,123.1,206.4,107.6z"/>
			<path class="st13" d="M247.2,48.4c0,0,5.8-20.4-12.2-20.6c0,0-10.9-19.5-36.7-21.9l10,7c0,0-13.5-10.9-39.3-4.4
				c0,0,1.4,9.2,10.7,11.2c0,0-11.3-3-13.7-5.5c0,0-1,16.4,7.2,21c8.3,4.7,42.3-6.9,52.2,10.4c9.8,17.3,19.9,0.2,19.9,0.2"/>
			<path class="st16" d="M221.9,64.8l-26.8-0.2c0,0-3.1,22.1,14.6,22.1C227.3,86.6,221.9,64.8,221.9,64.8z"/>
			<path class="st13" d="M206.9,73.8c-0.3,3.3,0.9,6.1,2.7,6.3c1.8,0.2,3.5-2.3,3.9-5.6c0.3-3.3-0.9-6.1-2.7-6.3
				C208.9,67.9,207.2,70.5,206.9,73.8z"/>
			<polygon class="st17" points="194.2,63.6 225.2,63.5 225.7,67.1 194.5,66.5 			"/>
			<path class="st16" d="M163.1,62.6l25.5,1.6c0,0,0.7,24.6-16.8,21.8C154.4,83.3,163.1,62.6,163.1,62.6z"/>
			<polygon class="st17" points="189.6,63.2 160,60.8 159,64.3 188.9,66.2 			"/>
			<path class="st13" d="M177.2,71.7c-0.3,3.3,0.9,6.1,2.7,6.3c1.8,0.2,3.5-2.3,3.9-5.6c0.3-3.3-0.9-6.1-2.7-6.3
				C179.3,65.8,177.5,68.4,177.2,71.7z"/>
			<polygon class="st12" points="189.8,97.5 189.2,69.7 177,93 			"/>
			<polygon class="st17" points="225.6,67.1 245.9,77.1 246,74 225.2,63.5 			"/>
			<path class="st18" d="M195.2,69.4c-1.9-1.6-4.7-2-6.8-0.5"/>
		</g>
		<path class="st15" d="M240.8,321.1c0,0-58.1,19.5-108.5-1.5c0,0-0.8-95.7-0.5-153.6c0,0,29.6-8.6,63-8.6l3.1,12.7l3.8-12.6
			c0,0,48.4,6.9,66.4,12.6C268.1,170.1,249.8,277.4,240.8,321.1z"/>
		<polygon class="st19" points="227.4,161.2 210,176.2 201.7,157.5 220.1,149.2 		"/>
		<polygon class="st19" points="168.8,158.7 181.2,174 194.8,157.2 176.7,148.2 		"/>
		<path class="st15" d="M131.8,166c0,0-37.6,47.4-50.1,76.1c0,0,10.2,13,26.4,15.4l32.9-41.7L131.8,166z"/>
		<path class="st15" d="M268.1,170.1c0,0,29.2,60.7,34.8,103.6c0,0-5.9,10.4-22.3,9.4L249,203.9L268.1,170.1z"/>
		<path class="st15" d="M94.7,228.7c0,0-30.1-24.3-41.6-41.6c0,0-13.4,1.1-18.5,8.5c0,0,23.2,47.5,42.4,60.9
			c0,0,15.6,16.3,22.6,10.2C125.2,244.6,94.7,228.7,94.7,228.7z"/>
		<path class="st19" d="M193.1,179c-0.3,1.4,0.6,2.7,1.8,2.9c1.3,0.2,2.5-0.7,2.8-2c0.3-1.4-0.6-2.7-1.8-2.9
			C194.6,176.7,193.4,177.6,193.1,179z"/>
		<path class="st19" d="M190.4,201.8c-0.3,1.4,0.6,2.7,1.8,2.9c1.3,0.2,2.5-0.7,2.8-2c0.3-1.4-0.6-2.7-1.8-2.9
			C191.9,199.6,190.6,200.5,190.4,201.8z"/>
		<path class="st19" d="M185.9,230.2c-0.3,1.4,0.6,2.7,1.8,2.9c1.3,0.2,2.5-0.7,2.8-2c0.3-1.4-0.6-2.7-1.8-2.9
			C187.4,227.9,186.2,228.8,185.9,230.2z"/>
		<path class="st19" d="M182.4,257.3c-0.3,1.4,0.6,2.7,1.8,2.9c1.3,0.2,2.5-0.7,2.8-2c0.3-1.4-0.6-2.7-1.8-2.9
			C183.9,255,182.7,255.9,182.4,257.3z"/>
		<path class="st19" d="M179.2,286.3c-0.3,1.4,0.6,2.7,1.8,2.9c1.3,0.2,2.5-0.7,2.8-2c0.3-1.4-0.6-2.7-1.8-2.9
			C180.7,284,179.4,284.9,179.2,286.3z"/>
		<path class="st19" d="M177.8,312.7c-0.3,1.4,0.6,2.7,1.8,2.9c1.3,0.2,2.5-0.7,2.8-2c0.3-1.4-0.6-2.7-1.8-2.9
			C179.3,310.4,178.1,311.3,177.8,312.7z"/>
		
			<rect x="222.7" y="211.5" transform="matrix(0.1596 -0.9872 0.9872 0.1596 -35.8816 413.51)" class="st19" width="4.6" height="32.6"/>
	</g>
	<path class="st4" d="M206.3,480.3c0,11.1,9,20.1,20.1,20.1H265c11.1,0,20.1-9,20.1-20.1V312.5c0-11.1-9-20.1-20.1-20.1h-38.6
		c-11.1,0-20.1,9-20.1,20.1V480.3z"/>
	<path class="st5" d="M225.8,498.5c0,11.1,9,20.1,20.1,20.1h38.6c11.1,0,20.1-9,20.1-20.1V312.5c0-11.1-9-20.1-20.1-20.1h-38.6
		c-11.1,0-20.1,9-20.1,20.1V498.5z"/>
	<g>
		<path class="st11" d="M200.9,293c3.1-8.9,22.5-8.4,28.5-6.9c1.3,5.2,1.9,8.7,1.4,10c-3.5,9.2-12,2.2-12,2.2
			c5.2,29.5-5.9-2.4-5.9-2.4c7.7,32.8-5.2,0.8-5.2,0.8c2.1,33.6-4.1,2-4.1,2C193.5,328.7,200.9,293,200.9,293z"/>
	</g>
	<polygon class="st11" points="224.8,299.6 242.3,296.9 241.2,282.9 219,286.8 	"/>
	<path class="st15" d="M284,259.9c0,0-34.1,18.9-55.7,21.2c0,0-1.7,10.7,2.8,19c0,0,47.5,3.9,69.1-7.5c0,0,14.9-0.3-0.6-36.1
		C295.7,247.5,284,259.9,284,259.9z"/>
	<path class="st1" d="M171.2,522.5l14.1,29l13.4-9.3l-12.4-28.9C182.6,516.6,177.4,520.3,171.2,522.5z"/>
	<path class="st2" d="M170.3,531.5c0,0-5.6,13.6-17.9,21.5c-12.3,7.9-23,16.4-19.7,23.8c0,0,22.8,3.3,52.2-16.9l1,3.3l21.1-7.3
		l-8.1-26.9l-17.4,6.5l0.5-3.1L170.3,531.5z"/>
	<g>
		<path class="st3" d="M170.9,564.6c-27,15.9-36.8,10.2-38.6,10.2c0,0.7,0.1,1.4,0.4,2.1c0,0,22.8,3.3,52.2-16.9l1,3.3l21.1-7.3
			l-1.6-5.4C197.9,553.3,190.9,552.9,170.9,564.6z"/>
	</g>
</g>
</svg>
